<?xml version="1.0" encoding="utf-8"?>
<!-- Generator: Adobe Illustrator 22.1.0, SVG Export Plug-In . SVG Version: 6.00 Build 0)  -->
<svg version="1.1" id="Layer_1" xmlns="http://www.w3.org/2000/svg" xmlns:xlink="http://www.w3.org/1999/xlink" x="0px" y="0px"
	 viewBox="0 0 33 33" width="33" height="33" style="enable-background:new 0 0 33 33;" xml:space="preserve">
<style type="text/css">
	.st0{fill:#46321D;}
</style>
<g id="Search_Magnify_3_">
	<rect x="3" y="3" class="st0" width="3" height="3"/>
	<rect x="18" y="3" class="st0" width="3" height="3"/>
	<rect x="15" class="st0" width="3" height="3"/>
	<rect x="12" class="st0" width="3" height="3"/>
	<rect x="9" class="st0" width="3" height="3"/>
	<rect x="6" class="st0" width="3" height="3"/>
	<rect x="21" y="6" transform="matrix(6.123234e-17 -1 1 6.123234e-17 15 30)" class="st0" width="3" height="3"/>
	<rect x="21" y="9" transform="matrix(6.123234e-17 -1 1 6.123234e-17 12 33)" class="st0" width="3" height="3"/>
	<rect x="21" y="12" transform="matrix(6.123234e-17 -1 1 6.123234e-17 9 36)" class="st0" width="3" height="3"/>
	<rect x="21" y="15" transform="matrix(6.123234e-17 -1 1 6.123234e-17 6 39)" class="st0" width="3" height="3"/>
	<rect y="6" transform="matrix(6.123234e-17 -1 1 6.123234e-17 -6 9)" class="st0" width="3" height="3"/>
	<rect y="9" transform="matrix(6.123234e-17 -1 1 6.123234e-17 -9 12)" class="st0" width="3" height="3"/>
	<rect y="12" transform="matrix(6.123234e-17 -1 1 6.123234e-17 -12 15)" class="st0" width="3" height="3"/>
	<rect y="15" transform="matrix(6.123234e-17 -1 1 6.123234e-17 -15 18)" class="st0" width="3" height="3"/>
	<rect x="6" y="21" transform="matrix(-1 -1.224647e-16 1.224647e-16 -1 15 45)" class="st0" width="3" height="3"/>
	<rect x="3" y="18" transform="matrix(-1 -1.224647e-16 1.224647e-16 -1 9 39)" class="st0" width="3" height="3"/>
	<rect x="18" y="18" transform="matrix(-1 -1.224647e-16 1.224647e-16 -1 39 39)" class="st0" width="3" height="3"/>
	<rect x="21" y="21" transform="matrix(-1 -1.224647e-16 1.224647e-16 -1 45 45)" class="st0" width="3" height="3"/>
	<rect x="24" y="21" transform="matrix(-1 -1.224647e-16 1.224647e-16 -1 51 45)" class="st0" width="3" height="3"/>
	<rect x="21" y="24" transform="matrix(-1 -1.224647e-16 1.224647e-16 -1 45 51)" class="st0" width="3" height="3"/>
	<rect x="24" y="27" transform="matrix(-1 -1.224647e-16 1.224647e-16 -1 51 57)" class="st0" width="3" height="3"/>
	<rect x="24" y="24" transform="matrix(-1 -1.224647e-16 1.224647e-16 -1 51 51)" class="st0" width="3" height="3"/>
	<rect x="27" y="24" transform="matrix(-1 -1.224647e-16 1.224647e-16 -1 57 51)" class="st0" width="3" height="3"/>
	<rect x="27" y="30" transform="matrix(-1 -1.224647e-16 1.224647e-16 -1 57 63)" class="st0" width="3" height="3"/>
	<rect x="27" y="27" transform="matrix(-1 -1.224647e-16 1.224647e-16 -1 57 57)" class="st0" width="3" height="3"/>
	<rect x="30" y="27" transform="matrix(-1 -1.224647e-16 1.224647e-16 -1 63 57)" class="st0" width="3" height="3"/>
	<rect x="30" y="30" transform="matrix(-1 -1.224647e-16 1.224647e-16 -1 63 63)" class="st0" width="3" height="3"/>
	<rect x="9" y="21" transform="matrix(-1 -1.224647e-16 1.224647e-16 -1 21 45)" class="st0" width="3" height="3"/>
	<rect x="12" y="21" transform="matrix(-1 -1.224647e-16 1.224647e-16 -1 27 45)" class="st0" width="3" height="3"/>
	<rect x="15" y="21" transform="matrix(-1 -1.224647e-16 1.224647e-16 -1 33 45)" class="st0" width="3" height="3"/>
</g>
<g id="Search_Magnify_1_">
	<rect x="70" y="1" class="st0" width="3" height="3"/>
	<rect x="70" y="10" class="st0" width="3" height="3"/>
	<rect x="70" y="13" class="st0" width="3" height="3"/>
	<rect x="55" y="1" class="st0" width="3" height="3"/>
	<rect x="73" y="4" class="st0" width="3" height="3"/>
	<rect x="67" y="7" class="st0" width="3" height="3"/>
	<rect x="52" y="4" class="st0" width="3" height="3"/>
	<rect x="67" y="-2" class="st0" width="3" height="3"/>
	<rect x="64" y="-2" class="st0" width="3" height="3"/>
	<rect x="61" y="-2" class="st0" width="3" height="3"/>
	<rect x="58" y="-2" class="st0" width="3" height="3"/>
	<rect x="76" y="7" transform="matrix(6.123234e-17 -1 1 6.123234e-17 69 86)" class="st0" width="3" height="3"/>
	<rect x="76" y="10" transform="matrix(6.123234e-17 -1 1 6.123234e-17 66 89)" class="st0" width="3" height="3"/>
	<rect x="76" y="13" transform="matrix(6.123234e-17 -1 1 6.123234e-17 63 92)" class="st0" width="3" height="3"/>
	<rect x="76" y="16" transform="matrix(6.123234e-17 -1 1 6.123234e-17 60 95)" class="st0" width="3" height="3"/>
	<rect x="49" y="7" transform="matrix(6.123234e-17 -1 1 6.123234e-17 42 59)" class="st0" width="3" height="3"/>
	<rect x="49" y="10" transform="matrix(6.123234e-17 -1 1 6.123234e-17 39 62)" class="st0" width="3" height="3"/>
	<rect x="49" y="13" transform="matrix(6.123234e-17 -1 1 6.123234e-17 36 65)" class="st0" width="3" height="3"/>
	<rect x="49" y="16" transform="matrix(6.123234e-17 -1 1 6.123234e-17 33 68)" class="st0" width="3" height="3"/>
	<rect x="58" y="25" transform="matrix(-1 -1.224647e-16 1.224647e-16 -1 119 53)" class="st0" width="3" height="3"/>
	<rect x="55" y="22" transform="matrix(-1 -1.224647e-16 1.224647e-16 -1 113 47)" class="st0" width="3" height="3"/>
	<rect x="61" y="19" transform="matrix(-1 -1.224647e-16 1.224647e-16 -1 125 41)" class="st0" width="3" height="3"/>
	<rect x="58" y="16" transform="matrix(-1 -1.224647e-16 1.224647e-16 -1 119 35)" class="st0" width="3" height="3"/>
	<rect x="70" y="22" transform="matrix(-1 -1.224647e-16 1.224647e-16 -1 143 47)" class="st0" width="3" height="3"/>
	<rect x="52" y="19" transform="matrix(-1 -1.224647e-16 1.224647e-16 -1 107 41)" class="st0" width="3" height="3"/>
	<rect x="55" y="13" transform="matrix(-1 -1.224647e-16 1.224647e-16 -1 113 29)" class="st0" width="3" height="3"/>
	<rect x="55" y="10" transform="matrix(-1 -1.224647e-16 1.224647e-16 -1 113 23)" class="st0" width="3" height="3"/>
	<rect x="73" y="19" transform="matrix(-1 -1.224647e-16 1.224647e-16 -1 149 41)" class="st0" width="3" height="3"/>
	<rect x="73" y="22" transform="matrix(-1 -1.224647e-16 1.224647e-16 -1 149 47)" class="st0" width="3" height="3"/>
	<rect x="76" y="25" transform="matrix(-1 -1.224647e-16 1.224647e-16 -1 155 53)" class="st0" width="3" height="3"/>
	<rect x="79" y="25" transform="matrix(-1 -1.224647e-16 1.224647e-16 -1 161 53)" class="st0" width="3" height="3"/>
	<rect x="76" y="28" transform="matrix(-1 -1.224647e-16 1.224647e-16 -1 155 59)" class="st0" width="3" height="3"/>
	<rect x="79" y="31" transform="matrix(-1 -1.224647e-16 1.224647e-16 -1 161 65)" class="st0" width="3" height="3"/>
	<rect x="79" y="28" transform="matrix(-1 -1.224647e-16 1.224647e-16 -1 161 59)" class="st0" width="3" height="3"/>
	<rect x="82" y="28" transform="matrix(-1 -1.224647e-16 1.224647e-16 -1 167 59)" class="st0" width="3" height="3"/>
	<rect x="82" y="34" transform="matrix(-1 -1.224647e-16 1.224647e-16 -1 167 71)" class="st0" width="3" height="3"/>
	<rect x="82" y="31" transform="matrix(-1 -1.224647e-16 1.224647e-16 -1 167 65)" class="st0" width="3" height="3"/>
	<rect x="85" y="31" transform="matrix(-1 -1.224647e-16 1.224647e-16 -1 173 65)" class="st0" width="3" height="3"/>
	<rect x="85" y="37" transform="matrix(-1 -1.224647e-16 1.224647e-16 -1 173 77)" class="st0" width="3" height="3"/>
	<rect x="85" y="34" transform="matrix(-1 -1.224647e-16 1.224647e-16 -1 173 71)" class="st0" width="3" height="3"/>
	<rect x="88" y="34" transform="matrix(-1 -1.224647e-16 1.224647e-16 -1 179 71)" class="st0" width="3" height="3"/>
	<rect x="88" y="37" transform="matrix(-1 -1.224647e-16 1.224647e-16 -1 179 77)" class="st0" width="3" height="3"/>
	<rect x="61" y="25" transform="matrix(-1 -1.224647e-16 1.224647e-16 -1 125 53)" class="st0" width="3" height="3"/>
	<rect x="64" y="25" transform="matrix(-1 -1.224647e-16 1.224647e-16 -1 131 53)" class="st0" width="3" height="3"/>
	<rect x="67" y="25" transform="matrix(-1 -1.224647e-16 1.224647e-16 -1 137 53)" class="st0" width="3" height="3"/>
</g>
<rect x="15" y="9" class="st0" width="3" height="3"/>
<rect x="15" y="12" class="st0" width="3" height="3"/>
<rect x="12" y="6" class="st0" width="3" height="3"/>
</svg>
