<?xml version="1.0" encoding="utf-8"?>
<!-- Generator: Adobe Illustrator 22.1.0, SVG Export Plug-In . SVG Version: 6.00 Build 0)  -->
<svg version="1.1" id="Layer_1" xmlns="http://www.w3.org/2000/svg" xmlns:xlink="http://www.w3.org/1999/xlink" x="0px" y="0px"
	 viewBox="0 0 37 34" style="enable-background:new 0 0 37 34;" xml:space="preserve">
<style type="text/css">
	.st0{fill:#FFC30B;}
	.st1{fill:#491200;}
</style>
<g id="Star_1_">
	<polygon class="st0" points="33,12 32,12 31,12 30,12 29,12 29,11 28,11 27,11 26,11 25,11 25,10 24,10 23,10 22,10 22,9 22,8 
		21,8 21,7 21,6 21,5 20,5 20,4 20,3 19,3 19,2 18,2 18,3 17,3 17,4 17,5 16,5 16,6 16,7 16,8 15,8 15,9 15,10 14,10 13,10 12,10 
		12,11 11,11 10,11 9,11 8,11 8,12 7,12 6,12 5,12 4,12 3,12 3,13 4,13 4,14 5,14 6,14 6,15 7,15 7,16 8,16 8,17 9,17 9,18 10,18 
		10,19 11,19 11,20 11,21 10,21 10,22 10,23 10,24 10,25 9,25 9,26 9,27 9,28 9,29 8,29 8,30 8,31 8,32 7,32 7,33 8,33 9,33 9,32 
		10,32 10,31 11,31 11,30 12,30 12,29 13,29 13,28 14,28 15,28 15,27 16,27 17,27 17,26 18,26 19,26 20,26 20,27 21,27 22,27 22,28 
		23,28 24,28 24,29 25,29 25,30 26,30 26,31 27,31 27,32 28,32 28,33 29,33 30,33 30,32 29,32 29,31 29,30 29,29 28,29 28,28 28,27 
		28,26 28,25 27,25 27,24 27,23 27,22 27,21 26,21 26,20 26,19 27,19 27,18 28,18 28,17 29,17 29,16 30,16 30,15 31,15 31,14 32,14 
		33,14 33,13 34,13 34,12 	"/>
	<g>
		<polygon points="14,13 14,14 14,15 14,16 14,17 14,18 14,19 15,19 16,19 16,18 16,17 16,16 16,15 16,14 16,13 15,13 		"/>
		<polygon points="22,13 21,13 21,14 21,15 21,16 21,17 21,18 21,19 22,19 23,19 23,18 23,17 23,16 23,15 23,14 23,13 		"/>
	</g>
	<path class="st1" d="M36,11h-1h-1h-1h-1h-1h-1v-1h-1h-1h-1h-1V9h-1h-1h-1V8V7h-1V6V5V4h-1V3V2h-1V1h-1V0h-1v1h-1v1h-1v1v1h-1v1v1v1
		h-1v1v1h-1h-1h-1v1h-1H9H8H7v1H6H5H4H3H2H1H0v1h1v1h1v1h1v1h1h1v1h1v1h1v1h1v1h1v1v1v1v1v1H8v1v1v1v1H7v1v1v1H6v1v1v1h1h1h1h1v-1h1
		v-1h1v-1h1v-1h1v-1h1h1v-1h1h1v-1h1v1h1h1v1h1h1v1h1v1h1v1h1v1h1v1h1h1h1h1v-1v-1v-1h-1v-1v-1v-1h-1v-1v-1v-1v-1h-1v-1v-1v-1v-1v-1
		h1v-1h1v-1h1v-1h1v-1h1h1v-1h1v-1h1v-1h1v-1H36z M33,13v1h-1h-1v1h-1v1h-1v1h-1v1h-1v1h-1v1v1h1v1v1v1v1h1v1v1v1v1h1v1v1v1h1v1h-1
		h-1v-1h-1v-1h-1v-1h-1v-1h-1v-1h-1h-1v-1h-1h-1v-1h-1h-1h-1v1h-1h-1v1h-1h-1v1h-1v1h-1v1h-1v1H9v1H8H7v-1h1v-1v-1v-1h1v-1v-1v-1v-1
		h1v-1v-1v-1v-1h1v-1v-1h-1v-1H9v-1H8v-1H7v-1H6v-1H5H4v-1H3v-1h1h1h1h1h1v-1h1h1h1h1v-1h1h1h1V9V8h1V7V6V5h1V4V3h1V2h1v1h1v1v1h1v1
		v1v1h1v1v1h1h1h1v1h1h1h1h1v1h1h1h1h1h1v1H33z"/>
</g>
</svg>
