<svg xmlns="http://www.w3.org/2000/svg" viewBox="0 0 37 34" width="37" height="34" preserveAspectRatio="xMinYMin meet"><path d="M16.4 33.5v-7.3h.5c4.2 0 7.5-2.1 9-5.6 1.4-3.4.6-7.3-2-10-1.7-1.7-4-2.7-6.5-2.7-2.2 0-4.3.8-6 2.2l3.2 3.4H3.1V1.2l3.3 3.5C9.4 2 13.3.5 17.4.5c4.4 0 8.5 1.7 11.6 4.8 6.4 6.4 6.4 16.9 0 23.3-3.2 3.2-7.3 4.8-12.2 4.8h-.4z" fill="#ffc30b"/><path d="M17.4 1c4.1 0 8.2 1.6 11.3 4.7 6.3 6.3 6.3 16.4 0 22.6-3 3-6.9 4.7-11.9 4.7v-6.4c9.6 0 13.1-10.6 7.3-16.4-1.9-1.9-4.3-2.8-6.8-2.8-2.4 0-4.8.9-6.7 2.7l2.8 2.9h-10V2.4l2.8 3C9.5 2.5 13.5 1 17.4 1M2.6 0v14H15.7l-1.5-1.6-2.1-2.2c1.5-1.2 3.4-1.8 5.3-1.8 2.3 0 4.5.9 6.1 2.5 2.5 2.5 3.2 6.2 1.9 9.5-1.4 3.3-4.6 5.3-8.5 5.3H16V34h.9c5 0 9.2-1.7 12.5-5 3.2-3.2 5-7.5 5-12s-1.8-8.8-5-12c-3.2-3.2-7.4-5-12-5-4.1 0-7.9 1.4-11 4L4.2 1.8 2.6 0z" fill="#491200"/></svg>