<?xml version="1.0" encoding="utf-8"?>
<svg version="1.1" id="Layer_1" xmlns="http://www.w3.org/2000/svg" xmlns:xlink="http://www.w3.org/1999/xlink" x="0px" y="0px"
	 viewBox="0 0 282.3 101.6" style="enable-background:new 0 0 282.3 101.6;">
<style type="text/css">.st0{fill:#FFFFFF;}.st1{fill:#46321D;}</style>
<path class="st0" d="M47.9,80.4c-14.2-3.7-26.2-9-34.5-15.4C4.7,58.4,0.2,50.8,0.2,43.1c0-11.5,9.8-22.3,27.7-30.4
	C45.7,4.6,69.4,0.2,94.5,0.2c26,0,51.2,5,69,13.6c11.7-3,25-4.6,38.5-4.6c44.2,0,80.2,16.8,80.2,37.4s-36,37.4-80.2,37.4
	c-17.6,0-34.4-2.6-48.4-7.6c-16.7,6.1-37.6,9.5-59,9.5c-11.8,0-23.2-1-34.1-2.9l-1.8,17.8L47.9,80.4L47.9,80.4z"/>
<path class="st1" d="M94.5,0.4c27.2,0,51.8,5.3,68.9,13.6c11.4-2.9,24.5-4.6,38.5-4.6c44.2,0,80,16.7,80,37.3s-35.8,37.3-80,37.3
	c-18.2,0-35-2.8-48.4-7.6c-16.2,5.9-36.7,9.4-59,9.4c-12.1,0-23.6-1-34.2-2.9l-1.8,17.4L48.1,80.2C19.6,72.9,0.4,59,0.4,43.1
	C0.4,19.5,42.5,0.4,94.5,0.4 M94.5,0C69.3,0,45.6,4.5,27.8,12.6c-8.7,4-15.5,8.5-20.3,13.7c-5,5.3-7.5,11-7.5,16.9
	c0,7.8,4.6,15.4,13.3,22.1c8.4,6.4,20.3,11.7,34.5,15.4l10.4,20l0.5,1.1l0.1-1.2l1.7-17.1c10.8,1.9,22.2,2.8,33.9,2.8
	c10.9,0,21.7-0.8,31.9-2.5c9.8-1.6,19-3.9,27.1-6.9c14,5,30.8,7.6,48.4,7.6c21.4,0,41.5-3.9,56.7-11c15.3-7.1,23.6-16.6,23.6-26.7
	s-8.4-19.6-23.6-26.7c-15.1-7.1-35.3-11-56.7-11c-13.5,0-26.7,1.6-38.5,4.6c-8.7-4.2-19-7.6-30.7-9.9C120.7,1.2,107.8,0,94.5,0z"/>
</svg>
