<svg xmlns="http://www.w3.org/2000/svg" viewBox="0 0 784.8 271.3" preserveAspectRatio="none"><path d="M92.1 210.3C33.9 187.6.5 154.6.5 119.7c0-31.9 27.3-61.9 77-84.4C127 12.9 192.8.5 262.8.5c72.4 0 142.3 13.8 191.7 37.8C487 30 524 25.6 561.4 25.6c122.9 0 222.9 46.7 222.9 104.1 0 57.4-100 104.1-222.9 104.1-49 0-95.6-7.3-134.6-21.1-46.3 17-104.5 26.3-164 26.3-47.7 0-94.3-5.9-135-17l-4.8 47.6-30.9-59.3z" fill="#fff"/><path d="M262.7 1c75.7 0 143.9 14.6 191.6 37.9 31.8-8.1 68.2-12.8 107-12.8 122.8 0 222.4 46.4 222.4 103.6 0 57.2-99.6 103.6-222.4 103.6-50.6 0-97.2-7.9-134.6-21.1-44.9 16.4-102 26.2-164.1 26.2-49.6 0-95.9-6.3-135.4-17.1l-4.7 46.5-30-57.8h.1C36.6 188.2 1 155.9 1 119.8 1 54.2 118.2 1 262.7 1m0-1c-70 0-135.9 12.4-185.4 34.9-24.2 11-43.1 23.7-56.4 38C7 87.7 0 103.5 0 119.8 0 137.7 8.4 155 25.1 171c15.7 15.1 38.7 28.8 66.7 39.8l30 57.6 1.5 3 .3-3.3 4.6-45.3c40.5 11 87 16.8 134.5 16.8 30.4 0 60.3-2.3 88.7-7 27.3-4.5 52.7-10.9 75.4-19.2 39 13.8 85.5 21.1 134.5 21.1 59.5 0 115.5-10.8 157.7-30.5 42.4-19.7 65.7-46.1 65.7-74.2S761.4 75.4 719 55.6C676.9 36 620.9 25.1 561.3 25.1c-37.4 0-74.3 4.4-106.9 12.7-24.3-11.8-52.9-21.1-85.3-27.6C335.6 3.4 299.8 0 262.7 0z" fill="#46321d"/></svg>