<svg xmlns="http://www.w3.org/2000/svg" viewBox="0 0 304.5 250.3" preserveAspectRatio="none"><path d="M40.7 201C14.8 178.9.5 150.1.5 120 .5 54.1 68.6.5 152.3.5 235.9.5 304 54.1 304 120s-68.1 119.5-151.8 119.5c-32.7 0-63.8-8.1-90-23.3l-24.3 32.4 2.8-47.6z" fill="#fff"/><path d="M152.3 1c83.5 0 151.3 53.3 151.3 119s-67.7 119-151.3 119c-33.8 0-65-8.7-90.2-23.5L38.5 247l2.7-46.2C16.2 179.5 1 151.2 1 120 1 54.3 68.7 1 152.3 1m0-1C111.6 0 73.4 12.5 44.7 35.1 15.9 57.7 0 87.9 0 120c0 30.2 14.3 59 40.1 81.2L37.5 247l-.2 3.3 2-2.7 23.1-30.7C88.6 232 119.6 240 152.3 240c40.6 0 78.8-12.5 107.6-35.1 28.8-22.7 44.7-52.8 44.7-84.9s-15.9-62.3-44.7-84.9C231.1 12.5 192.9 0 152.3 0z" fill="#46321d"/></svg>