<svg id="Layer_1" xmlns="http://www.w3.org/2000/svg" viewBox="0 0 33 33" width="33" height="33" preserveAspectRatio="xMinYMin meet"><style>.st0{fill:#46321d}</style><g id="Search_Magnify_3_"><path class="st0" d="M3 3h3v3H3zM18 3h3v3h-3zM15 0h3v3h-3zM12 0h3v3h-3zM9 0h3v3H9zM6 0h3v3H6zM21 6h3v3h-3zM21 9h3v3h-3zM21 12h3v3h-3zM21 15h3v3h-3zM0 6h3v3H0zM0 9h3v3H0zM0 12h3v3H0zM0 15h3v3H0zM6 21h3v3H6zM3 18h3v3H3zM18 18h3v3h-3zM21 21h3v3h-3zM24 21h3v3h-3zM21 24h3v3h-3zM24 27h3v3h-3zM24 24h3v3h-3zM27 24h3v3h-3zM27 30h3v3h-3zM27 27h3v3h-3zM30 27h3v3h-3zM30 30h3v3h-3zM9 21h3v3H9zM12 21h3v3h-3zM15 21h3v3h-3z"/></g><path class="st0" d="M15 9h3v3h-3zM15 12h3v3h-3zM12 6h3v3h-3z"/></svg>